<svg xmlns="http://www.w3.org/2000/svg" viewBox="0 0 26.98 26.98"><defs><style>.cls-1{isolation:isolate;}.cls-2{fill:none;stroke:#1d1d1b;stroke-miterlimit:10;stroke-width:1.14px;}.cls-2,.cls-3{mix-blend-mode:multiply;}.cls-3{fill:#1d1d1b;}.cls-4{fill:#f6efe1;}</style></defs><title>Zasób 5</title><g class="cls-1"><g id="Warstwa_2" data-name="Warstwa 2"><g id="teksty"><rect class="cls-2" x="0.57" y="0.57" width="25.85" height="25.85" rx="4.61" ry="4.61"/><path class="cls-3" d="M13.89,15a.81.81,0,1,1-.81-.81.81.81,0,0,1,.81.81Zm0,0"/><path class="cls-3" d="M15.71,16.72A.73.73,0,1,1,15,16a.73.73,0,0,1,.73.73Zm0,0"/><path class="cls-3" d="M13.49,17.77a.69.69,0,1,1-.69-.69.68.68,0,0,1,.69.69Zm0,0"/><path class="cls-3" d="M20.08,18.42l-4.69-6.64V6.35h.13a.49.49,0,1,0,0-1H11.29a.49.49,0,1,0,0,1h.22v5.42L6.81,18.41A1.39,1.39,0,0,0,8,20.76H18.86a1.38,1.38,0,0,0,1.21-2.35ZM14.41,6.35V8.48H12.47V6.35Zm5.06,13.24c-.05.1-.24.2-.61.2H8c-.37,0-.56-.1-.61-.2s0-.31.19-.62l4.87-6.89V9.45h1.94v2.64L19.28,19C19.5,19.28,19.52,19.49,19.47,19.59Z"/><polygon class="cls-3" points="2.62 7.48 2.62 8.68 24.28 16.34 24.28 15.13 2.62 7.48"/><path class="cls-4" d="M2.62,7.48l21.66,7.66v1.21L2.62,8.68V7.48M2,6.55v2.6l.44.15L24.06,17l.88.31v-2.6l-.44-.15L2.84,6.86,2,6.55Z"/></g></g></g></svg>