<svg xmlns="http://www.w3.org/2000/svg" viewBox="0 0 26.98 26.98"><defs><style>.cls-1{isolation:isolate;}.cls-2{fill:none;stroke:#1d1d1b;stroke-miterlimit:10;stroke-width:1.14px;}.cls-2,.cls-3{mix-blend-mode:multiply;}.cls-4{fill:#1d1d1b;}</style></defs><title>Zasób 3</title><g class="cls-1"><g id="Warstwa_2" data-name="Warstwa 2"><g id="teksty"><rect class="cls-2" x="0.57" y="0.57" width="25.85" height="25.85" rx="4.61" ry="4.61"/><g class="cls-3"><path class="cls-4" d="M7.55,6.09h2.57a3.25,3.25,0,0,1,3.26,3.26v1.2a3.25,3.25,0,0,1-3.26,3.26H8.24v5.31a.69.69,0,0,1-1.37,0V6.77A.65.65,0,0,1,7.55,6.09Zm2.57,1.37H8.24v5h1.89A1.89,1.89,0,0,0,12,10.54V9.34A1.9,1.9,0,0,0,10.12,7.46Z"/><path class="cls-4" d="M15.43,19V6.69A.65.65,0,0,1,16.12,6a.68.68,0,0,1,.69.69V18.34h3.6a.69.69,0,1,1,0,1.37H16.12A.65.65,0,0,1,15.43,19Z"/></g></g></g></g></svg>