<svg xmlns="http://www.w3.org/2000/svg" viewBox="0 0 26.98 26.98"><defs><style>.cls-1{isolation:isolate;}.cls-2{fill:none;stroke:#1d1d1b;stroke-miterlimit:10;stroke-width:1.14px;}.cls-2,.cls-3{mix-blend-mode:multiply;}.cls-3{fill:#1d1d1b;}</style></defs><title>Zasób 2</title><g class="cls-1"><g id="Warstwa_2" data-name="Warstwa 2"><g id="teksty"><rect class="cls-2" x="0.57" y="0.57" width="25.85" height="25.85" rx="4.61" ry="4.61"/><path class="cls-3" d="M20.74,6.54a.49.49,0,0,0-.47-.47,24.73,24.73,0,0,0-4.11.22c-3,.42-5.27,1.32-6.64,2.69a5.88,5.88,0,0,0-.33,7.95L5.91,20.22a.49.49,0,1,0,.69.69l3.28-3.29a5.88,5.88,0,0,0,7.95-.33c1.37-1.37,2.27-3.6,2.69-6.64A24.73,24.73,0,0,0,20.74,6.54ZM17.14,16.6a4.9,4.9,0,0,1-6.56.33l.88-.9h3.26a.47.47,0,0,0,.49-.47.5.5,0,0,0-.49-.51H12.44l2.14-2.12h3.26a.49.49,0,1,0,0-1H15.55l2.28-2.28A.49.49,0,0,0,17.14,9l-2.27,2.28V9a.5.5,0,0,0-.5-.49A.48.48,0,0,0,13.9,9v3.26l-2.16,2.14V12.1a.49.49,0,1,0-1,0v3.26l-.88.88a4.9,4.9,0,0,1,.33-6.56C12.34,7.55,16.76,7,19.77,7,19.78,8.65,19.63,14.11,17.14,16.6Z"/></g></g></g></svg>