<svg xmlns="http://www.w3.org/2000/svg" viewBox="0 0 26.98 26.98"><defs><style>.cls-1{isolation:isolate;}.cls-2,.cls-5{fill:none;stroke:#1d1d1b;}.cls-2{stroke-miterlimit:10;stroke-width:1.14px;}.cls-2,.cls-3,.cls-5{mix-blend-mode:multiply;}.cls-4{fill:#1d1d1b;}.cls-5{stroke-linecap:round;stroke-linejoin:round;stroke-width:1.2px;}</style></defs><title>Zasób 9</title><g class="cls-1"><g id="Warstwa_2" data-name="Warstwa 2"><g id="teksty"><rect class="cls-2" x="0.57" y="0.57" width="25.85" height="25.85" rx="4.61" ry="4.61"/><g class="cls-3"><path class="cls-4" d="M9.95,7.3a.69.69,0,0,1,.83.49c.36,1.31.73,2.59,1.07,3.84.58,2.12,1.24,4.63,1.71,6.19.41-1.56,1.11-4.09,1.69-6.19.34-1.24.71-2.53,1.07-3.84a.68.68,0,1,1,1.31.36L14.21,20.58a.65.65,0,0,1-.64.49.69.69,0,0,1-.66-.49L9.48,8.16A.69.69,0,0,1,9.95,7.3Z"/></g><line class="cls-5" x1="8.5" y1="7.35" x2="11.5" y2="7.35"/><line class="cls-5" x1="15.61" y1="7.35" x2="18.61" y2="7.35"/></g></g></g></svg>