<svg xmlns="http://www.w3.org/2000/svg" viewBox="0 0 26.98 26.98"><defs><style>.cls-1{isolation:isolate;}.cls-2,.cls-5{fill:none;stroke:#1d1d1b;stroke-miterlimit:10;}.cls-2{stroke-width:1.15px;}.cls-2,.cls-3,.cls-5{mix-blend-mode:multiply;}.cls-3{fill:#1d1d1b;}.cls-4{fill:#f6efe1;}.cls-5{stroke-width:1.14px;}</style></defs><title>Zasób 4</title><g class="cls-1"><g id="Warstwa_2" data-name="Warstwa 2"><g id="teksty"><circle class="cls-2" cx="7.68" cy="7.58" r="1.68" transform="translate(-3.11 7.65) rotate(-45)"/><circle class="cls-2" cx="13.74" cy="11.93" r="3.13" transform="translate(-4.41 13.21) rotate(-45)"/><polygon class="cls-3" points="2.92 7.48 2.92 8.68 24.57 16.34 24.57 15.13 2.92 7.48"/><path class="cls-4" d="M2.91,7.48l21.66,7.65v1.21L2.91,8.68V7.48m-.66-.93v2.6l.44.15L24.35,17l.88.31v-2.6l-.44-.15L3.13,6.86l-.88-.31Z"/><rect class="cls-5" x="0.57" y="0.57" width="25.85" height="25.85" rx="4.61" ry="4.61"/><circle class="cls-2" cx="18.49" cy="18.51" r="1.68" transform="translate(-7.68 18.5) rotate(-45)"/><circle class="cls-2" cx="10.57" cy="18.96" r="2.13" transform="translate(-10.31 13.03) rotate(-45)"/></g></g></g></svg>