<svg xmlns="http://www.w3.org/2000/svg" viewBox="0 0 26.98 26.98"><defs><style>.cls-1{isolation:isolate;}.cls-2,.cls-4,.cls-5{mix-blend-mode:multiply;}.cls-3,.cls-5{fill:#1d1d1b;}.cls-4{fill:none;stroke:#1d1d1b;stroke-miterlimit:10;stroke-width:1.14px;}.cls-6{fill:#f6efe1;}</style></defs><title>Zasób 8</title><g class="cls-1"><g id="Warstwa_2" data-name="Warstwa 2"><g id="teksty"><g class="cls-2"><path class="cls-3" d="M8.85,15.38c0-2.5,4-7.64,4.45-8.21a.52.52,0,0,1,.81,0c.46.58,4.45,5.71,4.45,8.21a4.86,4.86,0,0,1-9.71,0Zm1,0a3.82,3.82,0,0,0,7.65,0c0-1.64-2.47-5.25-3.82-7C12.36,10.12,9.89,13.74,9.89,15.38Z"/><path class="cls-3" d="M11.29,15.53a.42.42,0,0,1,.83,0,1.42,1.42,0,0,0,1.41,1.41.42.42,0,0,1,0,.83A2.25,2.25,0,0,1,11.29,15.53Z"/></g><rect class="cls-4" x="0.57" y="0.57" width="25.85" height="25.85" rx="4.61" ry="4.61"/><polygon class="cls-5" points="2.36 8.18 2.36 9.39 24.02 17.05 24.02 15.84 2.36 8.18"/><path class="cls-6" d="M2.36,8.18,24,15.84V17L2.36,9.39V8.18M1.7,7.26v2.6l.44.15L23.8,17.66l.88.31v-2.6l-.44-.15L2.58,7.57,1.7,7.26Z"/></g></g></g></svg>