<svg xmlns="http://www.w3.org/2000/svg" viewBox="0 0 26.98 26.98"><defs><style>.cls-1{isolation:isolate;}.cls-2,.cls-5{fill:none;stroke:#1d1d1b;stroke-miterlimit:10;}.cls-2{stroke-width:1.15px;}.cls-2,.cls-3,.cls-5{mix-blend-mode:multiply;}.cls-3{fill:#1d1d1b;}.cls-4{fill:#f6efe1;}.cls-5{stroke-width:1.14px;}</style></defs><title>Zasób 6</title><g class="cls-1"><g id="Warstwa_2" data-name="Warstwa 2"><g id="teksty"><path class="cls-2" d="M17.73,6.43V11.3a4.11,4.11,0,0,1-4.1,4.1h0a4.11,4.11,0,0,1-4.1-4.1V6.43S17.89,6.28,17.73,6.43Z"/><line class="cls-2" x1="13.64" y1="21.21" x2="13.64" y2="15.39"/><line class="cls-2" x1="10.51" y1="21.21" x2="16.76" y2="21.21"/><polygon class="cls-3" points="3.2 7.48 3.2 8.68 24.86 16.34 24.86 15.13 3.2 7.48"/><path class="cls-4" d="M3.2,7.48l21.66,7.65v1.21L3.2,8.68V7.48m-.66-.93v2.6L3,9.3,24.64,17l.88.31v-2.6l-.44-.15L3.42,6.86l-.88-.31Z"/><rect class="cls-5" x="0.57" y="0.57" width="25.85" height="25.85" rx="4.61" ry="4.61"/></g></g></g></svg>