<svg xmlns="http://www.w3.org/2000/svg" viewBox="0 0 26.98 26.98"><defs><style>.cls-1{isolation:isolate;}.cls-2,.cls-3{fill:none;stroke:#1d1d1b;}.cls-2{stroke-linecap:round;stroke-linejoin:round;stroke-width:0.9px;}.cls-2,.cls-3,.cls-4{mix-blend-mode:multiply;}.cls-3{stroke-miterlimit:10;stroke-width:1.14px;}.cls-4{fill:#1d1d1b;}.cls-5{fill:#f6efe1;}</style></defs><title>Zasób 7</title><g class="cls-1"><g id="Warstwa_2" data-name="Warstwa 2"><g id="teksty"><polyline class="cls-2" points="10.79 10.27 10.72 6.1 14.89 3.5 19.22 6.02 19.52 10.38 17.05 12.12"/><polyline class="cls-2" points="10.72 6.1 15.01 8.73 15.07 11.7"/><line class="cls-2" x1="15.01" y1="8.73" x2="19.22" y2="6.02"/><polyline class="cls-2" points="9.78 11.28 6.1 12.21 8.88 16.04 13.84 15.06 11.8 12.23"/><polyline class="cls-2" points="6.1 12.21 4.3 16.49 7.46 20.25 8.88 16.04"/><polyline class="cls-2" points="7.46 20.25 12.34 19.2 13.84 15.06 16.02 13.47"/><polyline class="cls-2" points="12.69 18.58 13.35 21.19 17.98 22.88 21.3 19.41 20.53 15.31"/><polyline class="cls-2" points="16.07 13.47 16.85 17.69 13.46 21.07"/><line class="cls-2" x1="16.97" y1="17.87" x2="21.3" y2="19.41"/><rect class="cls-3" x="0.57" y="0.57" width="25.85" height="25.85" rx="4.61" ry="4.61"/><polygon class="cls-4" points="2.36 8.18 2.36 9.39 24.02 17.05 24.02 15.84 2.36 8.18"/><path class="cls-5" d="M2.36,8.18,24,15.84V17L2.36,9.39V8.18M1.7,7.26v2.6l.44.15L23.8,17.66l.88.31v-2.6l-.44-.15L2.58,7.57,1.7,7.26Z"/></g></g></g></svg>