<?xml version="1.0" encoding="utf-8"?>
<!-- Generator: Adobe Illustrator 21.0.0, SVG Export Plug-In . SVG Version: 6.00 Build 0)  -->
<svg version="1.1" xmlns="http://www.w3.org/2000/svg" xmlns:xlink="http://www.w3.org/1999/xlink" x="0px" y="0px"
	 viewBox="0 0 243 595.3" style="enable-background:new 0 0 243 595.3;" xml:space="preserve">
<style type="text/css">
	.st0{fill:none;stroke:#000000;stroke-width:1.1379;stroke-miterlimit:10;}
	.st1{font-family:'Montserrat-SemiBold';}
	.st2{font-size:7.7723px;}
	.st3{fill:none;stroke:#000000;stroke-width:1.1522;stroke-miterlimit:10;}
	.st4{fill:#F6EFE1;}
	.st5{fill:none;stroke:#000000;stroke-width:1.2032;stroke-linecap:round;stroke-linejoin:round;stroke-miterlimit:10;}
	.st6{font-size:9.2477px;}
	.st7{fill:none;stroke:#000000;stroke-width:0.9019;stroke-linecap:round;stroke-linejoin:round;stroke-miterlimit:10;}
</style>
<g id="teksty">
	<g>
		<path class="st0" d="M128.2,111.4h-16.6c-2.5,0-4.6-2.1-4.6-4.6V90.1c0-2.5,2.1-4.6,4.6-4.6h16.6c2.5,0,4.6,2.1,4.6,4.6v16.6
			C132.8,109.3,130.8,111.4,128.2,111.4z"/>
		<path d="M127.2,91.5c0-0.3-0.2-0.5-0.5-0.5c-0.1,0-1.9-0.1-4.1,0.2c-3,0.4-5.3,1.3-6.6,2.7c-2.2,2.2-2.3,5.7-0.3,7.9l-3.3,3.3
			c-0.2,0.2-0.2,0.5,0,0.7c0.1,0.1,0.2,0.1,0.3,0.1c0.1,0,0.3,0,0.3-0.1l3.3-3.3c2.3,1.9,5.7,1.9,7.9-0.3c1.4-1.4,2.3-3.6,2.7-6.6
			C127.2,93.4,127.2,91.6,127.2,91.5z M123.6,101.6c-1.8,1.8-4.7,1.9-6.6,0.3l0.9-0.9h3.3c0.3,0,0.5-0.2,0.5-0.5
			c0-0.3-0.2-0.5-0.5-0.5h-2.3l2.1-2.1h3.3c0.3,0,0.5-0.2,0.5-0.5c0-0.3-0.2-0.5-0.5-0.5H122l2.3-2.3c0.2-0.2,0.2-0.5,0-0.7
			c-0.2-0.2-0.5-0.2-0.7,0l-2.3,2.3V94c0-0.3-0.2-0.5-0.5-0.5c-0.3,0-0.5,0.2-0.5,0.5v3.3l-2.2,2.1v-2.3c0-0.3-0.2-0.5-0.5-0.5
			c-0.3,0-0.5,0.2-0.5,0.5v3.3l-0.9,0.9c-1.5-1.9-1.5-4.7,0.3-6.6c2.1-2.1,6.5-2.7,9.6-2.6C126.2,93.6,126,99.1,123.6,101.6z"/>
	</g>
	<g>
		<path class="st0" d="M128.2,167h-16.6c-2.5,0-4.6-2.1-4.6-4.6v-16.6c0-2.5,2.1-4.6,4.6-4.6h16.6c2.5,0,4.6,2.1,4.6,4.6v16.6
			C132.8,165,130.8,167,128.2,167z"/>
		<g>
			<path d="M114,146.7h2.6c1.8,0,3.3,1.5,3.3,3.3v1.2c0,1.8-1.5,3.3-3.3,3.3h-1.9v5.3c0,0.4-0.3,0.7-0.7,0.7s-0.7-0.3-0.7-0.7v-12.3
				C113.3,147,113.6,146.7,114,146.7z M116.5,148.1h-1.9v5h1.9c1,0,1.9-0.8,1.9-1.9V150C118.4,148.9,117.6,148.1,116.5,148.1z"/>
			<path d="M121.8,159.7v-12.3c0-0.4,0.3-0.7,0.7-0.7c0.4,0,0.7,0.3,0.7,0.7V159h3.6c0.4,0,0.7,0.3,0.7,0.7c0,0.4-0.3,0.7-0.7,0.7
				h-4.3C122.1,160.3,121.8,160.1,121.8,159.7z"/>
		</g>
	</g>
	<g>
		<text transform="matrix(0.75 0 0 1 140.9565 102.185)" class="st1 st2">NATURALNY</text>
	</g>
	<g>
		<path class="st3" d="M124.1,313.4v4.9c0,2.3-1.8,4.1-4.1,4.1h0c-2.3,0-4.1-1.8-4.1-4.1v-4.9C116,313.4,124.3,313.3,124.1,313.4z"
			/>
		<line class="st3" x1="120.1" y1="328.2" x2="120.1" y2="322.4"/>
		<line class="st3" x1="116.9" y1="328.2" x2="123.2" y2="328.2"/>
		<g>
			<polygon points="109.6,314.5 109.6,315.7 131.3,323.4 131.3,322.1 			"/>
			<path class="st4" d="M109.6,314.5l21.7,7.7v1.2l-21.7-7.7V314.5 M109,313.6v0.9v1.2v0.5l0.4,0.2l21.7,7.7l0.9,0.3v-0.9v-1.2v-0.5
				l-0.4-0.2l-21.7-7.7L109,313.6L109,313.6z"/>
		</g>
		<path class="st0" d="M128.2,333.4h-16.6c-2.5,0-4.6-2.1-4.6-4.6v-16.6c0-2.5,2.1-4.6,4.6-4.6h16.6c2.5,0,4.6,2.1,4.6,4.6v16.6
			C132.8,331.4,130.8,333.4,128.2,333.4z"/>
	</g>
	<g>
		<text transform="matrix(0.75 0 0 1 141.3628 318.0171)"><tspan x="0" y="0" class="st1 st2">BEZ</tspan><tspan x="0" y="9.5" class="st1 st2">ALKOHOLU</tspan></text>
	</g>
	<g>
		<text transform="matrix(0.75 0 0 1 141.3325 152.2495)"><tspan x="0" y="0" class="st1 st2">PRODUKOWANY</tspan><tspan x="0" y="9.5" class="st1 st2">W POLSCE</tspan></text>
	</g>
	<g>
		<path class="st0" d="M128.2,278h-16.6c-2.5,0-4.6-2.1-4.6-4.6v-16.6c0-2.5,2.1-4.6,4.6-4.6h16.6c2.5,0,4.6,2.1,4.6,4.6v16.6
			C132.8,275.9,130.8,278,128.2,278z"/>
		<g>
			<path d="M120.3,266.5c0,0.4-0.4,0.8-0.8,0.8c-0.4,0-0.8-0.4-0.8-0.8c0-0.4,0.4-0.8,0.8-0.8C119.9,265.7,120.3,266.1,120.3,266.5
				L120.3,266.5z M120.3,266.5"/>
			<path d="M122.1,268.3c0,0.4-0.3,0.7-0.7,0.7c-0.4,0-0.7-0.3-0.7-0.7c0-0.4,0.3-0.7,0.7-0.7C121.8,267.5,122.1,267.9,122.1,268.3
				L122.1,268.3z M122.1,268.3"/>
			<path d="M119.9,269.3c0,0.4-0.3,0.7-0.7,0.7c-0.4,0-0.7-0.3-0.7-0.7c0-0.4,0.3-0.7,0.7-0.7C119.6,268.6,119.9,268.9,119.9,269.3
				L119.9,269.3z M119.9,269.3"/>
		</g>
		<path d="M126.5,270l-4.7-6.6v-5.4h0.1c0.3,0,0.5-0.2,0.5-0.5c0-0.3-0.2-0.5-0.5-0.5h-4.2c-0.3,0-0.5,0.2-0.5,0.5
			c0,0.3,0.2,0.5,0.5,0.5h0.2v5.4l-4.7,6.6c-0.6,0.8-0.4,1.4-0.3,1.6c0.1,0.3,0.5,0.7,1.5,0.7h10.8c1,0,1.3-0.5,1.5-0.7
			C126.9,271.3,127,270.7,126.5,270z M120.8,257.9v2.1h-1.9v-2.1H120.8z M125.9,271.1c-0.1,0.1-0.2,0.2-0.6,0.2h-10.8
			c-0.4,0-0.6-0.1-0.6-0.2c0-0.1,0-0.3,0.2-0.6l4.9-6.9V261h1.9v2.6l4.9,6.9C125.9,270.8,125.9,271,125.9,271.1z"/>
		<g>
			<polygon points="109,259 109,260.2 130.7,267.9 130.7,266.7 			"/>
			<path class="st4" d="M109,259l21.7,7.7v1.2l-21.7-7.7V259 M108.4,258.1v0.9v1.2v0.5l0.4,0.2l21.7,7.7l0.9,0.3v-0.9v-1.2v-0.5
				l-0.4-0.2l-21.7-7.7L108.4,258.1L108.4,258.1z"/>
		</g>
	</g>
	<g>
		<path class="st0" d="M128.2,499.8h-16.6c-2.5,0-4.6-2.1-4.6-4.6v-16.6c0-2.5,2.1-4.6,4.6-4.6h16.6c2.5,0,4.6,2.1,4.6,4.6v16.6
			C132.8,497.7,130.8,499.8,128.2,499.8z"/>
		<g>
			<path d="M116.4,480.7c0.4-0.1,0.7,0.1,0.8,0.5c0.4,1.3,0.7,2.6,1.1,3.8c0.6,2.1,1.2,4.6,1.7,6.2c0.4-1.6,1.1-4.1,1.7-6.2
				c0.3-1.2,0.7-2.5,1.1-3.8c0.1-0.4,0.5-0.6,0.8-0.5c0.4,0.1,0.6,0.5,0.5,0.9l-3.4,12.4c-0.1,0.3-0.3,0.5-0.6,0.5
				c-0.3,0-0.6-0.2-0.7-0.5l-3.4-12.4C115.8,481.1,116,480.8,116.4,480.7z"/>
		</g>
		<line class="st5" x1="114.9" y1="480.7" x2="117.9" y2="480.7"/>
		<line class="st5" x1="122" y1="480.7" x2="125" y2="480.7"/>
	</g>
	<g>
		<g>
			<path d="M115.3,433c0-2.5,4-7.6,4.5-8.2c0.1-0.1,0.2-0.2,0.4-0.2s0.3,0.1,0.4,0.2c0.5,0.6,4.5,5.7,4.5,8.2c0,2.7-2.2,4.9-4.9,4.9
				S115.3,435.7,115.3,433z M116.3,433c0,2.1,1.7,3.8,3.8,3.8c2.1,0,3.8-1.7,3.8-3.8c0-1.6-2.5-5.3-3.8-7
				C118.8,427.8,116.3,431.4,116.3,433z"/>
			<path d="M117.7,433.2c0-0.2,0.2-0.4,0.4-0.4c0.2,0,0.4,0.2,0.4,0.4c0,0.8,0.6,1.4,1.4,1.4c0.2,0,0.4,0.2,0.4,0.4
				s-0.2,0.4-0.4,0.4C118.7,435.4,117.7,434.4,117.7,433.2z"/>
		</g>
		<path class="st0" d="M128.2,444h-16.6c-2.5,0-4.6-2.1-4.6-4.6v-16.6c0-2.5,2.1-4.6,4.6-4.6h16.6c2.5,0,4.6,2.1,4.6,4.6v16.6
			C132.8,442,130.8,444,128.2,444z"/>
		<g>
			<polygon points="108.8,425.8 108.8,427 130.4,434.7 130.4,433.5 			"/>
			<path class="st4" d="M108.8,425.8l21.7,7.7v1.2l-21.7-7.7V425.8 M108.1,424.9v0.9v1.2v0.5l0.4,0.2l21.7,7.7l0.9,0.3v-0.9v-1.2
				V433l-0.4-0.2l-21.7-7.7L108.1,424.9L108.1,424.9z"/>
		</g>
	</g>
	<g>
		<text transform="matrix(0.65 0 0 1 141.3325 489.3764)" class="st1 st6">WEGAŃSKI</text>
	</g>
	<g>
		<text transform="matrix(0.75 0 0 1 141.3325 424.5151)"><tspan x="0" y="0" class="st1 st2">BEZ</tspan><tspan x="0" y="9.5" class="st1 st2">SZTUCZNYCH</tspan><tspan x="0" y="19" class="st1 st2">BARWNIKÓW</tspan></text>
	</g>
	<g>
		<polyline class="st7" points="117.2,372.5 117.1,368.3 121.3,365.7 125.6,368.2 125.9,372.6 123.5,374.3 		"/>
		<polyline class="st7" points="117.1,368.3 121.4,370.9 121.5,373.9 		"/>
		<line class="st7" x1="121.4" y1="370.9" x2="125.6" y2="368.2"/>
		<polyline class="st7" points="116.2,373.5 112.5,374.4 115.3,378.2 120.3,377.3 118.2,374.4 		"/>
		<polyline class="st7" points="112.5,374.4 110.7,378.7 113.9,382.5 115.3,378.2 		"/>
		<polyline class="st7" points="113.9,382.5 118.8,381.4 120.3,377.3 122.4,375.7 		"/>
		<polyline class="st7" points="119.1,380.8 119.8,383.4 124.4,385.1 127.7,381.6 126.9,377.5 		"/>
		<polyline class="st7" points="122.5,375.7 123.3,379.9 119.9,383.3 		"/>
		<line class="st7" x1="123.4" y1="380.1" x2="127.7" y2="381.6"/>
		<path class="st0" d="M128.2,388.6h-16.6c-2.5,0-4.6-2.1-4.6-4.6v-16.6c0-2.5,2.1-4.6,4.6-4.6h16.6c2.5,0,4.6,2.1,4.6,4.6V384
			C132.8,386.5,130.8,388.6,128.2,388.6z"/>
		<g>
			<polygon points="108.8,370.4 108.8,371.6 130.4,379.3 130.4,378 			"/>
			<path class="st4" d="M108.8,370.4l21.7,7.7v1.2l-21.7-7.7V370.4 M108.1,369.5v0.9v1.2v0.5l0.4,0.2l21.7,7.7l0.9,0.3v-0.9V378
				v-0.5l-0.4-0.2l-21.7-7.7L108.1,369.5L108.1,369.5z"/>
		</g>
	</g>
	<g>
		<text transform="matrix(0.75 0 0 1 141.3335 369.5161)"><tspan x="0" y="0" class="st1 st2">BEZ SYROPU</tspan><tspan x="0" y="9.5" class="st1 st2">GLUKOZOWO</tspan><tspan x="0" y="19" class="st1 st2">-FRUKTOZOWEGO</tspan></text>
	</g>
	<g>
		<text transform="matrix(0.75 0 0 1 141.3325 262.9438)"><tspan x="0" y="0" class="st1 st2">BEZ</tspan><tspan x="0" y="9.5" class="st1 st2">KONSERWANTÓW</tspan></text>
	</g>
	<g>
		<text transform="matrix(0.75 0 0 1 141.3325 207.3618)"><tspan x="0" y="0" class="st1 st2">BEZ</tspan><tspan x="0" y="9.5" class="st1 st2">BĄBELKÓW</tspan></text>
	</g>
	<g>
		
			<ellipse transform="matrix(0.7071 -0.7071 0.7071 0.7071 -110.6192 140.3436)" class="st3" cx="114.1" cy="203.7" rx="1.7" ry="1.7"/>
		
			<ellipse transform="matrix(0.7071 -0.7071 0.7071 0.7071 -111.9255 145.8999)" class="st3" cx="120.2" cy="208.1" rx="3.1" ry="3.1"/>
		<g>
			<polygon points="109.3,203.6 109.3,204.8 131,212.5 131,211.3 			"/>
			<path class="st4" d="M109.3,203.6l21.7,7.7v1.2l-21.7-7.7V203.6 M108.7,202.7v0.9v1.2v0.5l0.4,0.2l21.7,7.7l0.9,0.3v-0.9v-1.2
				v-0.5l-0.4-0.2l-21.7-7.7L108.7,202.7L108.7,202.7z"/>
		</g>
		<path class="st0" d="M128.2,222.5h-16.6c-2.5,0-4.6-2.1-4.6-4.6v-16.6c0-2.5,2.1-4.6,4.6-4.6h16.6c2.5,0,4.6,2.1,4.6,4.6v16.6
			C132.8,220.5,130.8,222.5,128.2,222.5z"/>
		
			<ellipse transform="matrix(0.7071 -0.7071 0.7071 0.7071 -115.1866 151.1886)" class="st3" cx="124.9" cy="214.6" rx="1.7" ry="1.7"/>
		
			<ellipse transform="matrix(0.7071 -0.7071 0.7071 0.7071 -117.8235 145.7174)" class="st3" cx="117" cy="215.1" rx="2.1" ry="2.1"/>
	</g>
</g>
<g id="Layer_3">
	<line class="st0" x1="107.2" y1="99.2" x2="34.8" y2="99.2"/>
	<line class="st0" x1="107.2" y1="154.7" x2="40" y2="154.7"/>
	<line class="st0" x1="107.2" y1="210.3" x2="44" y2="210.3"/>
	<line class="st0" x1="107.2" y1="265.9" x2="65.5" y2="265.9"/>
	<line class="st0" x1="107.2" y1="321.5" x2="70.2" y2="321.5"/>
	<line class="st0" x1="107.2" y1="377.1" x2="70.9" y2="377.1"/>
	<line class="st0" x1="107.2" y1="432.7" x2="70.4" y2="432.7"/>
	<line class="st0" x1="107.2" y1="488.2" x2="70.7" y2="488.2"/>
	<path class="st0" d="M29.8,166.6"/>
	<path class="st0" d="M102,166.6"/>
	<path class="st0" d="M29.8,222.1"/>
	<path class="st0" d="M102,222.1"/>
	<path class="st0" d="M29.8,222.5"/>
	<path class="st0" d="M102,222.5"/>
</g>
</svg>
